<?xml version="1.0" encoding="utf-8"?>
<!-- Designed by Vexels.com - 2020 All Rights Reserved - https://vexels.com/terms-and-conditions/  -->
<svg version="1.1" id="Layer_1" xmlns="http://www.w3.org/2000/svg" xmlns:xlink="http://www.w3.org/1999/xlink" x="0px" y="0px"
	 viewBox="0 0 1200 1200" enable-background="new 0 0 1200 1200" xml:space="preserve">
<g>
	<path fill="#31353E" d="M1062.435,282.278c-9.499-9.89-25.238-9.57-38.801-7.545c-5.954,0.889-12.228,2.191-17.442,5.002
		c-0.065-0.041-0.129-0.084-0.194-0.124c10.48-9.787,19.436-21.206,26.416-33.732c4.489-8.056,8.152-18.081,3.793-26.208
		c-2.332-4.348-6.601-7.311-10.969-9.605c-7.8-4.096-20.668-7.935-32.715-8.298c0.214-3.847,0.401-7.693,0.585-11.531
		c0.465-9.712,0.915-19.584-1.393-29.03c-2.556-10.459-8.399-19.876-15.404-28.052c-16.787-19.593-41.658-32.992-67.457-32.679
		c-25.799,0.313-51.672,15.816-61.146,39.815c1.365-19.041-6.083-38.09-16.065-54.363c-9.982-16.273-26.027-28.995-44.507-33.784
		c-15.455-4.005-32.31-2.357-46.697,4.567c-14.386,6.924-26.19,19.069-32.701,33.646c-12.114,27.12-5.078,59.759,10.863,84.821
		c-8.91-4.306-18.895-6.365-28.782-5.932c-4.014,0.176-8.247,0.856-11.316,3.448c-4.132,3.489-5.069,9.707-3.635,14.922
		c1.434,5.215,4.811,9.649,8.22,13.848c-9.832-1.777-21.02-3.605-30.875-1.962c-9.855,1.643-19.598,7.091-23.917,16.101
		c-4.816,10.046-1.949,22.262,3.652,31.892c5.116,8.795,12.422,16.305,21.073,21.661c3.273,2.026,6.763,3.77,9.627,6.342
		c4.015,3.606,6.502,8.559,9.078,13.301c21.176,38.988,54.07,70.881,91.52,94.671c37.45,23.79,79.402,39.8,122.222,51.416
		c6.563,1.78,13.283,3.517,18.977,7.233c7.046,4.597,19.939,13.976,28.861,16.263c-7.2,2.801-13.634,5.771-18.69,8.376
		c-4.564,2.352-9.143,5.039-12.226,9.145c-3.082,4.106-4.342,9.968-1.816,14.438c19.271,9.255,40.069,18.492,61.232,15.463
		c2.714-0.388,5.536-1.045,7.569-2.885c4.263-3.858,3.164-10.7,1.719-16.265c13.803,1.638,27.858,1.134,41.509-1.487
		c2.56-0.492,5.316-1.183,6.932-3.228c1.908-2.414,1.575-5.906,0.615-8.829c-4.015-12.227-11.937-19.188-21.847-22.578
		c8.008-3.396,15.64-7.669,22.683-12.781c3.865-2.805,7.863-8.134,4.744-11.75c-1.152-1.336-2.958-1.872-4.669-2.304
		c-3.066-0.773-6.166-1.412-9.287-1.923c2.922-2.899,5.844-5.798,8.766-8.697c4.011-3.98,8.122-8.104,10.295-13.321
		c3.345-8.029,1.309-17.829-4.44-24.356c-5.087-5.776-12.75-8.975-20.458-9.199c0.112-0.26,0.223-0.52,0.334-0.78
		c20.294-5.467,38.716-17.728,51.53-34.396c5.43-7.062,9.948-15.084,11.384-23.876
		C1070.622,298.361,1068.606,288.703,1062.435,282.278z"/>
	<path fill="#0488A5" d="M380.988,648.479c-54.242,23.179-108.485,46.357-162.727,69.536c-17.931,7.662-36.308,15.617-50.252,29.248
		c-13.944,13.631-22.662,34.419-16.64,52.965c7.748,23.862,36.591,34.877,61.562,32.457c24.971-2.42,47.75-14.618,71.35-23.133
		c26.236-9.466,53.837-14.453,81.287-19.399c18.251-3.289,36.502-6.578,54.753-9.866c5.178-0.933,10.603-1.853,15.617-0.261
		c4.901,1.557,8.804,5.365,11.687,9.623c15.403,22.747,4.081,53.326-7.55,78.214c-11.038,23.619-22.076,47.237-33.114,70.856
		c-6.522,13.956-13.062,27.945-21.072,41.104c-12.153,19.964-27.773,38.206-35.421,60.291c-7.648,22.086-4.72,50.367,14.589,63.537
		c11.039,7.529,25.313,8.703,38.568,7.015c29.091-3.705,56.241-20.605,72.408-45.073c8.842-13.382,14.43-28.67,22.924-42.275
		c8.35-13.373,19.336-24.857,29.291-37.083c15.913-19.544,29.226-41.041,42.491-62.47c7.195-11.624,14.391-23.248,21.586-34.871
		c10.448-16.879,20.897-33.758,31.345-50.637c15.85-25.606,32.291-53.456,30.197-83.497c-1.944-27.887-20.195-52.692-43.138-68.663
		c-22.943-15.972-50.246-24.332-77.362-31.127c-26.388-6.612-53.09-11.971-79.986-16.058c-11.591-1.761-27.499-6.663-39.114-4.822
		C403.651,635.771,390.975,644.212,380.988,648.479z"/>
	<path fill="#F29681" d="M523.791,458.468c-39.651-6.431-79.618-10.91-119.709-13.417c-4.034-0.252-8.13-0.48-12.076,0.391
		c-3.946,0.871-7.791,2.995-9.848,6.474c-1.532,2.591-1.951,5.684-2.084,8.691c-0.07,1.577-0.057,3.218,0.617,4.646
		c1.168,2.475,3.959,3.665,6.519,4.631c37.044,13.974,75.302,25.146,114.527,30.519c5.788,0.793,12.087,1.362,17.098-1.642
		c7.051-4.228,8.664-13.563,9.566-21.734c0.342-3.1,0.684-6.2,1.027-9.3c0.217-1.962,0.109-4.494-1.737-5.193"/>
	<path fill="#C15C44" d="M574.787,456.973c-10.518-2.111-20.835-5.552-31.525-6.322c-10.69-0.769-22.209,1.534-30.09,9.408
		c-3.158,3.155-5.597,7.072-7.468,11.234c-5.936,13.204-6.012,29.327,0.249,42.215c1.434,2.952,3.199,5.756,5.496,7.993
		c4.509,4.391,10.638,6.244,16.519,8.025c17.046,5.163,34.068,10.868,51.707,12.931c17.64,2.063,36.226,0.231,51.885-8.935
		c15.659-9.166,27.822-26.591,28.21-45.607c0.387-18.944-15.072-21.95-29.099-24.4C612.166,460.282,593.231,460.676,574.787,456.973
		z"/>
	<path fill="#F29681" d="M599.37,365.281c-1.313-19.768-1.053-40.712,8.855-57.867c14.227-24.633,43.982-34.834,66.149-52.662
		c7.927-6.375,14.99-13.843,23.427-19.527c12.289-8.281,26.891-12.377,41.395-15.418c39.871-8.36,82.119-9.532,120.71,3.517
		c38.591,13.049,73.06,41.71,86.91,80.02c6.22,17.204,8.178,35.668,8.593,53.957c0.445,19.585-0.882,39.499-7.388,57.978
		c-12.624,35.853-43.345,62.468-76.158,81.655c-33.453,19.561-70.865,33.306-109.55,35.577
		c-35.754,2.099-75.229-6.123-105.027-26.88c-22.229-15.484-37.546-48.713-45.739-73.337
		C604.357,410.688,600.876,387.951,599.37,365.281z"/>
	<path fill="#F29681" d="M930.325,425.163c11.615-0.611,24.905,4.339,28.571,15.378c1.59,4.785,1.131,10.002,0.231,14.964
		c-1.612,8.891-4.774,17.842-11.128,24.267c-8.428,8.522-20.96,11.257-32.801,13.113c-8.436,1.322-17.784,2.208-24.854-2.581
		c-7.225-4.893-9.891-14.77-8.087-23.308c1.804-8.538,7.328-15.853,13.65-21.868c5.941-5.653,12.715-10.43,20.034-14.13"/>
	<path fill="#C15C44" d="M587.217,492.807c-15.852,10.183-29.971,22.791-44.482,34.808c-35.531,29.425-73.777,55.568-114.095,77.99
		c-13.053,7.259-28.06,16.725-28.78,31.643c59.05,17.29,121.088,36.368,163.122,81.301c11.422,12.209,21.104,26.105,33.739,37.053
		c14.7,12.738,33.219,21.342,45.027,36.799c1.847,2.418,3.603,5.067,6.268,6.534c6.363,3.503,14.039-1.282,19.327-6.261
		c22.026-20.74,36.156-48.239,52.121-73.937c26.221-42.206,58.2-80.558,85.37-122.159c7.353-11.258,14.494-23.124,16.709-36.388
		c3.668-21.973-7.336-44.705-24.427-58.995c-18.1-15.134-46.849-25.494-69.845-31.323c-29.959-7.594-62.339-6.656-92.045,1.578
		C618.287,476.145,602.013,483.301,587.217,492.807z"/>
	<path fill="#C15C44" d="M793.876,494.534c19.496,1.228,39.288,2.514,57.701,9.038c12.522,4.437,24.188,11.229,37.016,14.684
		c15.891,4.28,33.282,3.367,48.005,10.719c4.785,2.389,9.404,5.943,11.065,11.027c1.508,4.613,0.328,9.635-1.021,14.297
		c-1.991,6.879-4.339,13.655-7.031,20.291c-6.736,16.6-17.623,33.888-35.088,37.877c-11.059,2.526-22.631-0.909-32.906-5.716
		s-19.937-11.028-30.705-14.594c-15.387-5.094-32.608-4.624-46.841-12.376c-12.577-6.85-21.549-20.3-22.146-34.609
		C771.326,530.863,764.747,500.758,793.876,494.534"/>
	<path fill="#F29681" d="M904.918,596.572c0.234,0.991,0.512,2.003,1.126,2.815c0.881,1.167,2.315,1.753,3.69,2.249
		c10.936,3.946,22.565,5.499,34.094,6.995c24.15,3.135,48.143,7.228,72.069,11.769c9.757,1.852,13.617,2.449,21.993,3.133
		c7.739,0.632,16.754-0.008,22.948-4.69s9.967-13.008,7.807-20.466c-1.551-5.355-5.868-8.073-11.314-9.263
		c-10.543-2.303-16.298-4.882-21.676-6.35c-28.997-7.918-52.593-19.029-80.169-30.993c-6.643-2.882-12.516-5.925-19.638-7.424
		c-6.575-1.384-8.344-1.342-13.428,2.715c-9.211,7.35-15.506,18.128-17.771,29.661C903.364,583.265,903.384,590.075,904.918,596.572
		z"/>
	<path fill="#F29681" d="M1052.718,588.682c17.616,3.31,34.04-13.335,51.844-11.26c0.886,1.88-0.404,4.093-1.985,5.443
		s-3.539,2.349-4.644,4.109c-0.36,0.574-0.62,1.26-0.481,1.923c0.288,1.375,1.977,1.849,3.366,2.056
		c7.972,1.191,17.271,1.974,22.944-3.752c0.937-0.945,1.749-2.054,2.899-2.724c1.15-0.67,2.81-0.74,3.656,0.287
		c0.616,0.747,0.616,1.817,0.51,2.779c-0.415,3.755-2.015,7.37-4.515,10.202c2.753-0.148,4.116,3.618,3.191,6.216
		s-3.114,4.552-4.284,7.049c-1.758,3.749-1.045,8.302-2.831,12.037c-1.653,3.458-5.147,5.616-8.569,7.341
		c-3.076,1.55-6.28,2.922-9.668,3.546c-5.044,0.929-10.229,0.159-15.3-0.611c-17.112-2.599-34.271-5.208-50.962-9.789
		c-2.328-0.639-4.964-1.604-5.763-3.882c-0.466-1.331-0.165-2.798,0.201-4.159c2.378-8.848,7.411-16.964,14.278-23.029"/>
	<path fill="#31353E" d="M952.2,368.644c-3.342,2.331-8.252,1.134-11.09-1.791c-2.838-2.925-3.97-7.108-4.406-11.159
		c-1.253-11.651,2.363-23.214,5.934-34.374c1.581-4.942,3.251-10.042,6.71-13.909c3.459-3.867,9.231-6.172,13.97-4.061
		c5.93,2.642,7.375,10.277,7.785,16.756c2.138,33.754-1.239,70.907-14.353,102.416c-3.878,9.316-9.552,17.727-20.454,18.431
		c-19.936,1.289-19.787-13.468-13.607-27.916C928.827,398.689,938.992,377.857,952.2,368.644z"/>
	<path fill="#F29681" d="M385.104,423.931c-2.348-2.558-4.94-5.256-8.351-5.905c-1.019-0.194-2.162-0.162-2.977,0.479
		c-1.557,1.223-1.005,3.667-0.306,5.52c1.047,2.777,2.093,5.554,3.14,8.332c-3.757,0.718-7.621-0.12-11.335-1.035
		c-2.923-0.72-5.934-1.541-8.258-3.454c-4.119-3.39-5.242-9.497-9.436-12.794c-0.902-0.709-2-1.282-3.144-1.192
		c-1.68,0.133-2.964,1.696-3.337,3.339c-0.372,1.643-0.038,3.355,0.298,5.006c0.445,2.193,0.89,4.386,1.335,6.58
		c-1.206,0.445-2.43-0.552-3.296-1.501c-1.867-2.046-3.557-4.254-5.045-6.59c-1.287-2.021-2.815-4.392-5.207-4.523
		c-1.934-0.106-3.663,1.461-4.302,3.29c-0.64,1.829-0.406,3.844,0.014,5.736c0.771,3.474,2.148,6.812,4.049,9.82
		c-3.124,0.017-6.2-2.957-9.005-1.583c-2.001,0.979-2.46,3.802-1.559,5.839c0.901,2.037,2.755,3.464,4.537,4.801
		c-2.041,0.763-4.408,1.922-4.651,4.088c-0.125,1.115,0.391,2.213,1.076,3.102c1.873,2.434,4.889,3.642,7.756,4.743
		c3.394,1.303,6.795,2.608,10.3,3.575c2.85,0.787,5.757,1.347,8.66,1.907c12.773,2.462,25.546,4.924,38.318,7.385
		c4.474,0.862,9.474,1.631,13.283-0.871c5.459-3.586,11.092-18.075,7.186-23.955c-1.934-2.912-5.574-4.871-8.006-7.365
		C392.809,432.57,389.008,428.184,385.104,423.931z"/>
	<path fill="#E2DED0" d="M405.037,1117.408c-4.062,10.781-11.336,21.168-20.842,27.204c-4.768,3.045-10.106,4.988-15.884,5.33
		c-18.435,1.101-33.582-13.818-45.039-28.305c-7.706-9.734-14.973-19.809-21.852-30.143c-3.454-5.186-6.841-10.485-8.929-16.354
		c-2.005-5.641-2.741-11.639-3.47-17.584c-0.585-4.761-1.048-9.931,0.083-14.479c0.562-2.278,1.526-4.396,3.075-6.226
		c3.644-4.313,9.787-5.854,15.39-5.209c5.603,0.638,10.804,3.159,15.777,5.824c27.47,14.722,54.751,35.739,76.617,57.932
		c2.878,2.923,5.793,6.12,6.735,10.121C407.626,1109.474,406.465,1113.604,405.037,1117.408z"/>
	<path fill="#E2DED0" d="M376.442,1135.613c13.2-5.092,23.038-16.14,32.337-26.803c3.6-4.127,7.2-8.255,10.8-12.383
		c2.423-2.778,4.926-5.706,5.789-9.291c1.546-6.421-2.555-12.763-6.848-17.783c-5.524-6.459-11.85-12.416-19.448-16.224
		c-7.598-3.808-16.619-5.299-24.716-2.716c-8.218,2.622-14.6,9.011-20.529,15.276c-2.159,2.281-4.35,4.644-5.551,7.546
		c-1.38,3.334-1.327,7.073-1.034,10.669c1.267,15.52,6.706,30.68,15.595,43.465"/>
	<path fill="#E2DED0" d="M194.061,813.316c-2.946,6.742-9.802,9.567-16.058,11.601c-21.32,6.94-43.172,11.662-65.206,14.107
		c-2.225,0.243-4.54,0.456-6.644-0.372c-0.121-0.053-0.25-0.106-0.372-0.159c-2.08-0.957-3.698-2.923-5.087-4.973
		c-5.117-7.593-7.843-16.939-10.485-26.088c-6.56-22.755-13.12-45.51-19.688-68.258c-0.979-3.409-1.967-7.099-1.017-10.516
		c0.349-1.253,0.934-2.346,1.693-3.265c2.202-2.68,5.839-3.903,9.096-3.409c4.388,0.668,8.223,3.675,11.784,6.727
		c11.518,9.863,22.178,21.085,31.768,33.43c2.012,2.589,4.123,5.338,6.978,6.363c1.974,0.706,4.093,0.509,6.143,0.266
		c7.274-0.865,14.502-2.225,21.639-4.07c5.322-1.367,13.416-6.302,18.488-3.789c10.007,4.966,16.567,26.931,18.086,38.107
		C195.83,803.825,195.959,808.981,194.061,813.316z"/>
	<path fill="#9FA190" d="M384.196,1144.613c-4.768,3.045-10.106,4.988-15.884,5.33c-18.435,1.101-33.582-13.818-45.039-28.305
		c-7.706-9.734-14.973-19.809-21.852-30.143c-3.454-5.186-6.841-10.485-8.929-16.354c-2.005-5.641-2.741-11.639-3.47-17.584
		c-0.585-4.761-1.048-9.931,0.083-14.479c4.161,0.767,7.729,3.796,10.858,6.773c21.206,20.219,37.956,44.698,58.881,65.206
		C368.16,1124.196,378.562,1132.897,384.196,1144.613z"/>
	<path fill="#9FA190" d="M106.154,838.653c-0.121-0.053-0.25-0.106-0.372-0.159c-2.08-0.957-3.698-2.923-5.087-4.973
		c-5.117-7.593-7.843-16.939-10.485-26.088c-6.56-22.755-13.12-45.51-19.688-68.258c-0.979-3.409-1.967-7.099-1.017-10.516
		c0.349-1.253,0.934-2.346,1.693-3.265c0.463,0.213,0.957,0.501,1.465,0.881c4.837,3.531,6.257,13.933,8.018,19.285
		c2.339,7.091,4.616,14.206,6.818,21.343c5.08,16.408,9.802,32.922,14.168,49.534C103.595,823.748,105.455,831.136,106.154,838.653z
		"/>
	<g>
		<path fill="#31353E" d="M867.239,270.054c0.199,0.869-1.457,2.065-5.327,3.397c-1.942,0.662-4.401,1.381-7.542,2.094
			c-3.139,0.686-6.977,1.408-11.624,1.428c-2.32-0.005-4.499-0.232-6.477-0.644c-1.907-0.386-4.071-0.966-5.651-2.595
			c-0.773-0.808-1.261-1.802-1.468-2.728c-0.225-0.932-0.205-1.804-0.097-2.588c0.222-1.558,0.894-2.836,1.586-3.73
			c1.419-1.802,2.765-2.598,3.615-3.13c0.872-0.507,1.35-0.658,1.47-0.515c0.124,0.146-0.133,0.583-0.745,1.354
			c-0.586,0.774-1.623,1.869-2.436,3.49c-0.403,0.811-0.665,1.725-0.649,2.76c0.014,1.02,0.369,2.038,1.117,2.587
			c0.749,0.597,2.114,0.937,3.892,1.088c1.738,0.179,3.635,0.208,5.691,0.061c4.115-0.323,7.672-1.119,10.726-1.729
			c3.05-0.633,5.616-1.108,7.644-1.342C865.029,268.828,867.04,269.185,867.239,270.054z"/>
	</g>
	<g>
		<path fill="#31353E" d="M737.967,255.271c0.243,0.36,0.083,1.007-0.669,1.857c-0.747,0.845-2.105,1.892-4.172,2.835
			c-2.058,0.953-4.813,1.754-8.136,2.31c-1.66,0.279-3.454,0.533-5.461,0.724c-2.004,0.18-4.201,0.307-6.602,0.207
			c-2.397-0.094-4.647-0.411-6.684-0.941c-1.02-0.254-1.982-0.582-2.889-0.924c-0.922-0.36-1.929-0.81-2.823-1.64
			c-0.925-0.811-1.47-2.176-1.47-3.198c-0.037-1.045,0.178-1.885,0.421-2.609c0.486-1.467,1.208-2.63,1.953-3.529
			c1.511-1.801,3.045-2.602,4.051-2.975c1.026-0.363,1.567-0.332,1.628-0.168c0.074,0.188-0.332,0.5-1.076,1.131
			c-0.73,0.632-1.826,1.629-2.754,3.294c-0.457,0.827-0.853,1.827-1.042,2.962c-0.107,0.568-0.131,1.15-0.039,1.594
			c0.111,0.462,0.252,0.634,0.598,0.884c0.681,0.495,2.542,0.927,4.275,1.206c1.779,0.28,3.743,0.389,5.884,0.319
			c4.276-0.153,8.044-0.818,11.231-1.275c3.162-0.474,5.627-0.945,7.551-1.385c1.923-0.434,3.32-0.809,4.334-0.965
			C737.087,254.829,737.713,254.893,737.967,255.271z"/>
	</g>
	<g>
		<path fill="#31353E" d="M714.395,235.228c-0.254-0.84,0.836-2.039,3.694-3.193c2.847-1.142,7.494-2.223,14.073-2.438
			c3.287-0.091,6.101,0.06,8.458,0.299c1.182,0.112,2.235,0.266,3.208,0.41c0.98,0.16,1.872,0.354,2.649,0.61
			c1.563,0.498,2.615,1.244,3.138,1.853c0.531,0.614,0.61,1.023,0.482,1.141c-0.145,0.138-0.493-0.01-1.122-0.236
			c-0.631-0.226-1.565-0.488-2.93-0.55c-0.681-0.037-1.471-0.02-2.38,0.028c-0.931,0.062-1.961,0.13-3.096,0.205
			c-2.271,0.168-4.947,0.417-8.04,0.818c-3.092,0.417-5.717,0.861-7.936,1.221c-2.218,0.365-4.037,0.624-5.496,0.764
			C716.179,236.434,714.655,236.095,714.395,235.228z"/>
	</g>
	<g>
		<path fill="#31353E" d="M879.906,259.723c-0.332,0.296-0.922,0.282-1.751-0.079c-0.819-0.371-1.906-1.058-3.261-2.098
			c-0.681-0.517-1.452-1.098-2.276-1.79c-0.864-0.644-1.755-1.437-2.8-2.227c-1.018-0.826-2.161-1.68-3.396-2.625
			c-0.631-0.452-1.288-0.923-1.97-1.412c-0.697-0.469-1.42-0.955-2.17-1.458c-0.768-0.476-1.51-0.936-2.224-1.378
			c-0.732-0.414-1.436-0.813-2.113-1.195c-1.377-0.72-2.653-1.384-3.859-1.909c-1.186-0.581-2.315-0.969-3.313-1.403
			c-1.023-0.365-1.935-0.689-2.74-0.976c-0.816-0.251-1.526-0.481-2.132-0.69c-0.608-0.189-1.114-0.332-1.515-0.478
			c-0.801-0.284-1.185-0.514-1.168-0.702c0.017-0.188,0.434-0.319,1.301-0.399c0.432-0.036,0.98-0.076,1.642-0.071
			c0.658,0.026,1.435,0.071,2.335,0.138c0.894,0.092,1.903,0.252,3.043,0.432c1.116,0.256,2.386,0.473,3.73,0.896
			c1.365,0.366,2.816,0.886,4.386,1.483c0.772,0.33,1.575,0.674,2.41,1.031c0.813,0.404,1.657,0.822,2.533,1.256
			c0.85,0.481,1.67,0.945,2.459,1.392c0.765,0.487,1.502,0.956,2.21,1.407c1.375,0.959,2.623,1.867,3.698,2.779
			c1.106,0.876,2.008,1.784,2.844,2.574c0.793,0.836,1.489,1.587,2.053,2.295C880.121,257.354,880.551,259.154,879.906,259.723z"/>
	</g>
	<g>
		<path fill="#31353E" d="M728.668,291.756c-0.411,0.143-1.05-0.323-1.768-1.584c-0.704-1.259-1.493-3.335-1.819-6.335
			c-0.16-1.497-0.188-3.222,0.026-5.146c0.232-1.905,0.605-4.208,2.16-6.616c0.773-1.194,1.971-2.328,3.399-3.073
			c1.435-0.767,3.071-1.116,4.612-1.164c3.112-0.105,5.995,0.701,8.835,1.342c5.482,1.252,10.45,0.949,14.477,0.16
			c2.022-0.406,3.809-0.99,5.397-1.586c0.781-0.324,1.52-0.644,2.206-0.967c0.664-0.36,1.319-0.659,1.892-1.006
			c0.567-0.354,1.116-0.664,1.604-0.985c0.479-0.336,0.922-0.647,1.33-0.932c0.793-0.6,1.436-1.125,1.96-1.533
			c0.987-0.873,1.549-1.251,1.697-1.134c0.149,0.117-0.127,0.718-0.881,1.885c-0.407,0.554-0.947,1.242-1.664,2.027
			c-0.378,0.376-0.788,0.784-1.232,1.225c-0.462,0.424-0.992,0.842-1.551,1.309c-0.564,0.459-1.217,0.876-1.893,1.358
			c-0.697,0.443-1.455,0.888-2.269,1.339c-1.652,0.85-3.55,1.695-5.739,2.354c-4.357,1.288-9.892,2.075-16.223,0.992
			c-3.023-0.538-5.623-1.065-7.691-0.913c-2.072,0.135-3.283,0.899-4.122,2.1c-0.853,1.24-1.303,2.921-1.587,4.497
			c-0.294,1.591-0.434,3.041-0.5,4.329c-0.127,2.578-0.009,4.512-0.04,5.841C729.265,290.87,729.096,291.608,728.668,291.756z"/>
	</g>
	<g>
		<path fill="#31353E" d="M803.981,315.411c0.074,0.439-1.05,1.046-3.487,1.801c-2.436,0.755-6.196,1.615-11.396,2.455
			c-2.601,0.402-5.56,0.836-8.897,1.177c-3.334,0.367-7.044,0.688-11.14,0.913c-8.187,0.479-17.923,0.616-29.24,0.029
			c-5.657-0.318-10.901-0.726-15.739-1.266c-4.837-0.532-9.272-1.101-13.325-1.774c-8.109-1.309-14.639-2.996-19.646-4.703
			c-5.009-1.722-8.508-3.401-10.726-4.634c-1.12-0.596-1.903-1.126-2.416-1.48c-0.511-0.36-0.737-0.577-0.693-0.661
			c0.044-0.083,0.357-0.029,0.947,0.165c0.593,0.188,1.447,0.548,2.628,0.969c2.339,0.884,5.905,2.178,10.906,3.486
			c5.005,1.293,11.452,2.54,19.475,3.428c4.006,0.462,8.416,0.826,13.208,1.162c4.791,0.344,9.976,0.565,15.557,0.718
			c11.166,0.257,20.733-0.022,28.796-0.433c4.032-0.193,7.689-0.43,10.985-0.666c3.298-0.209,6.232-0.466,8.824-0.646
			c5.181-0.399,8.985-0.646,11.515-0.676C802.645,314.743,803.907,314.972,803.981,315.411z"/>
	</g>
	<path fill="#EE7471" d="M860.918,291.698c-3.613,0.071-7.325,0.254-10.629,1.718c-3.304,1.465-6.15,4.497-6.366,8.105
		c-0.265,4.432,3.326,8.129,7.023,10.589c7.172,4.772,15.686,7.253,24.248,8.21c4.627,0.518,9.473,0.578,13.748-1.263
		c4.276-1.841,7.834-5.993,7.729-10.647C896.326,293.103,871.145,291.497,860.918,291.698z"/>
	<path fill="#EE7471" d="M661.496,272.562c-1.858,1.049-3.826,2.763-3.509,4.873c0.202,1.345,1.341,2.397,2.609,2.889
		c1.268,0.492,2.66,0.524,4.019,0.55c6.494,0.125,13.038,0.246,19.432-0.894c5.257-0.937,10.608-2.889,14.086-6.941
		c0.362-0.422,0.719-0.91,0.715-1.467c-0.026-4.061-12.803-4.536-15.706-4.354C675.73,267.681,668.048,268.861,661.496,272.562z"/>
	<path fill="#EE7471" d="M928.04,462.696c3.168,1.097,6.748,0.952,9.818-0.397c2.655-1.167,4.853-3.151,7-5.102
		c-2.11-0.111-4.221-0.223-6.332-0.334c0.372,0.02,6.189-4.035,6.443-4.372c-3.173-2.183-7.233-1.451-10.312,0.433
		C932.816,454.05,923.214,461.024,928.04,462.696z"/>
	<g>
		<path fill="#31353E" d="M537.354,536.602c-0.294-0.333,0.089-1.227,1.237-2.708c1.145-1.483,3.074-3.533,5.903-6.119
			c5.633-5.2,14.953-12.455,28.631-21.518c6.836-4.534,12.771-8.286,17.789-11.43c5.015-3.149,9.186-5.658,12.568-7.466
			c3.381-1.816,5.945-2.969,7.669-3.636c1.723-0.669,2.605-0.859,2.681-0.696c0.179,0.381-2.932,2.022-9.184,6.256
			c-3.13,2.116-7.012,4.926-11.798,8.412c-4.797,3.458-10.48,7.555-17.108,12.334c-13.227,9.556-22.448,16.585-28.565,21.033
			c-3.065,2.215-5.363,3.776-6.974,4.696C538.592,536.677,537.649,536.935,537.354,536.602z"/>
	</g>
	<g>
		<path fill="#31353E" d="M785.521,553.088c0.811-0.401,2.121,0.516,3.916,2.96c1.816,2.436,4.091,6.421,7.405,11.972
			c3.339,5.536,5.894,9.433,7.52,12.015c1.629,2.58,2.322,3.85,2.031,4.107c-0.273,0.241-1.492-0.562-3.763-2.672
			c-2.252-2.122-5.591-5.545-9.599-10.888c-3.984-5.362-6.261-9.599-7.335-12.53C784.62,555.114,784.732,553.477,785.521,553.088z"
			/>
	</g>
	<g>
		<path fill="#31353E" d="M737.07,584.444c0.135-2.109,2.476-3.861,7.361-4.373c4.881-0.538,12.308,0.224,22.508,2.489
			c10.198,2.281,17.36,4.487,22.007,5.899c4.641,1.452,6.764,2.185,6.707,2.545c-0.059,0.374-2.304,0.375-7.146,0.418
			c-4.836,0.017-12.271,0.135-22.571,0.105c-10.3-0.014-17.572-0.444-22.247-1.718C739.016,588.572,736.933,586.566,737.07,584.444z
			"/>
	</g>
	<g>
		<path fill="#31353E" d="M537.953,592.983c0.103-2.031,1.435-3.889,4.127-5.344c1.346-0.724,3.032-1.363,5.069-1.85
			c2.036-0.469,4.424-0.807,7.174-0.996c2.749-0.17,5.856-0.138,9.333,0.039c3.468,0.262,7.315,0.604,11.51,1.3
			c4.204,0.635,8.762,1.563,13.687,2.686c2.458,0.596,5.007,1.238,7.649,1.925c2.626,0.749,5.352,1.526,8.178,2.332
			c2.8,0.884,5.501,1.737,8.103,2.558c2.578,0.886,5.059,1.738,7.444,2.557c4.741,1.72,9.075,3.338,13.001,4.924
			c3.942,1.526,7.46,3.078,10.647,4.388c3.156,1.387,5.967,2.623,8.446,3.713c2.457,1.117,4.583,2.084,6.393,2.907
			c1.792,0.846,3.269,1.544,4.444,2.099c2.337,1.119,3.446,1.687,3.384,1.865c-0.062,0.178-1.292-0.044-3.823-0.57
			c-1.266-0.265-2.857-0.598-4.787-1.002c-1.938-0.369-4.218-0.803-6.85-1.305c-2.636-0.477-5.638-0.96-8.992-1.521
			c-3.378-0.479-7.092-1.097-11.216-1.602c-4.108-0.566-8.609-1.076-13.481-1.641c-2.437-0.256-4.972-0.522-7.607-0.798
			c-2.63-0.249-5.359-0.508-8.19-0.776c-5.642-0.478-10.881-0.922-15.732-1.334c-4.841-0.375-9.269-0.798-13.319-1.192
			c-4.042-0.456-7.714-0.822-11.001-1.372c-3.297-0.464-6.22-1.046-8.794-1.67c-2.575-0.604-4.797-1.301-6.68-2.074
			c-1.884-0.755-3.432-1.564-4.651-2.449C538.981,597.019,537.849,595.013,537.953,592.983z"/>
	</g>
	<path fill="none" stroke="#4E6D44" stroke-width="1.6828" stroke-miterlimit="10" d="M449.004,791.257"/>
	<g>
		<path fill="#31353E" d="M379.714,740.893c-0.036-0.219,0.105-0.457,0.456-0.711c0.35-0.258,0.917-0.506,1.718-0.688
			c1.592-0.386,4.172-0.376,7.335,0.54c1.576,0.454,3.292,1.114,5.113,1.938c1.807,0.826,3.787,1.783,5.92,2.939
			c4.268,2.3,9.184,5.309,14.564,9.298c5.381,3.987,9.685,7.791,13.161,11.142c3.464,3.346,6.147,6.307,7.993,8.86
			c1.854,2.548,2.898,4.628,3.452,6.031c0.548,1.413,0.638,2.15,0.479,2.22c-0.186,0.083-0.608-0.505-1.453-1.691
			c-0.853-1.18-2.152-2.951-4.21-5.124c-2.05-2.182-4.891-4.724-8.561-7.709c-3.662-2.975-8.1-6.368-13.503-9.973
			c-5.401-3.607-10.218-6.388-14.317-8.665c-2.047-1.142-3.931-2.139-5.619-3.048c-1.68-0.897-3.152-1.635-4.458-2.225
			c-2.607-1.17-4.548-1.713-5.896-2.067C380.543,741.606,379.79,741.35,379.714,740.893z"/>
	</g>
	<g>
		<path fill="#31353E" d="M544.289,929.098c-1.084,1.886-2.961,3.222-5.478,3.816c-1.263,0.303-2.673,0.394-4.263,0.323
			c-1.608-0.038-3.375-0.277-5.303-0.741c-1.945-0.43-4.097-0.99-6.413-1.829c-1.183-0.362-2.413-0.78-3.694-1.257
			c-0.638-0.246-1.291-0.497-1.961-0.755c-0.676-0.245-1.367-0.495-2.076-0.751c-2.828-1.092-5.918-2.284-9.279-3.581
			c-1.705-0.601-3.479-1.255-5.329-1.96c-1.877-0.64-3.824-1.305-5.844-1.994c-2.057-0.631-4.041-1.238-5.953-1.825
			c-1.946-0.526-3.818-1.032-5.618-1.519c-3.634-0.863-7.024-1.668-10.166-2.21c-0.787-0.15-1.557-0.297-2.308-0.441
			c-0.755-0.112-1.492-0.221-2.211-0.327c-1.449-0.21-2.826-0.41-4.131-0.599c-2.616-0.253-4.975-0.517-7.058-0.653
			c-2.09-0.09-3.9-0.168-5.44-0.234c-1.542-0.023-2.812,0.014-3.827,0.011c-2.029,0.009-3.018-0.011-3.053-0.197
			c-0.035-0.185,0.882-0.524,2.822-1.175c0.972-0.318,2.195-0.745,3.697-1.208c1.517-0.433,3.301-0.942,5.36-1.531
			c2.077-0.558,4.456-1.101,7.149-1.765c1.357-0.269,2.788-0.553,4.294-0.852c0.759-0.147,1.537-0.299,2.334-0.453
			c0.801-0.122,1.622-0.246,2.462-0.373c3.371-0.563,7.083-0.945,11.167-1.29c2.047-0.095,4.177-0.193,6.391-0.296
			c2.225,0.016,4.535,0.032,6.929,0.049c2.39,0.134,4.707,0.277,6.943,0.451c2.219,0.256,4.36,0.526,6.418,0.813
			c4.085,0.704,7.839,1.491,11.181,2.529c0.838,0.254,1.655,0.503,2.454,0.746c0.788,0.274,1.549,0.566,2.291,0.851
			c1.483,0.574,2.878,1.154,4.185,1.739c2.567,1.286,4.802,2.54,6.648,3.87c1.832,1.365,3.321,2.71,4.479,4.018
			c1.142,1.342,1.937,2.685,2.448,3.937C545.552,924.952,545.373,927.212,544.289,929.098z"/>
	</g>
	<g>
		<path fill="#31353E" d="M283.407,763.629c-0.425,0.131-1.02-0.274-1.748-1.227c-0.371-0.474-0.745-1.098-1.204-1.842
			c-0.497-0.729-1.036-1.596-1.615-2.607c-0.626-0.982-1.337-2.095-2.133-3.344c-0.431-0.601-0.886-1.235-1.364-1.901
			c-0.235-0.335-0.476-0.679-0.723-1.031c-0.27-0.335-0.547-0.678-0.83-1.029c-1.083-1.445-2.415-2.9-3.864-4.487
			c-0.768-0.753-1.567-1.536-2.396-2.35c-0.883-0.76-1.8-1.549-2.75-2.368c-1.007-0.753-1.978-1.48-2.913-2.179
			c-0.983-0.638-1.929-1.251-2.838-1.84c-1.882-1.074-3.629-2.062-5.314-2.792c-0.416-0.197-0.823-0.389-1.22-0.576
			c-0.409-0.158-0.807-0.313-1.197-0.464c-0.782-0.304-1.524-0.593-2.228-0.867c-1.443-0.429-2.729-0.869-3.882-1.178
			c-1.164-0.283-2.173-0.528-3.033-0.737c-0.869-0.172-1.587-0.315-2.162-0.429c-1.147-0.255-1.707-0.471-1.704-0.659
			c0.004-0.189,0.57-0.336,1.768-0.448c0.598-0.049,1.358-0.12,2.278-0.124c0.916,0.037,1.997,0.098,3.253,0.183
			c1.248,0.125,2.649,0.385,4.238,0.643c0.778,0.196,1.6,0.402,2.464,0.619c0.433,0.113,0.877,0.23,1.331,0.349
			c0.444,0.152,0.898,0.308,1.364,0.467c1.885,0.591,3.859,1.46,5.993,2.453c1.035,0.56,2.112,1.143,3.23,1.749
			c1.07,0.692,2.18,1.412,3.331,2.158c1.089,0.838,2.14,1.646,3.153,2.424c0.948,0.859,1.861,1.685,2.738,2.48
			c1.654,1.695,3.141,3.298,4.319,4.915c0.304,0.396,0.601,0.783,0.891,1.162c0.26,0.4,0.514,0.79,0.761,1.171
			c0.481,0.769,0.937,1.5,1.369,2.194c0.739,1.462,1.405,2.757,1.874,3.949c0.434,1.211,0.77,2.269,1.017,3.175
			c0.209,0.922,0.287,1.712,0.324,2.338C284.047,762.84,283.832,763.498,283.407,763.629z"/>
	</g>
	<g>
		<path fill="#EE7471" d="M1077.785,605.586c-0.159-0.284,0.395-0.892,1.699-1.946c1.299-1.063,3.359-2.567,6.072-4.876
			c2.696-2.327,4.497-4.133,5.746-5.255c1.242-1.128,1.927-1.582,2.183-1.381c0.239,0.187,0,0.996-0.964,2.434
			c-0.969,1.427-2.666,3.5-5.483,5.932c-2.833,2.413-5.141,3.773-6.7,4.512C1078.77,605.739,1077.933,605.852,1077.785,605.586z"/>
	</g>
	<g>
		<path fill="#EE7471" d="M1110.875,606.076c-0.373-0.507,0.738-1.955,4.027-4.371c0.822-0.603,1.546-1.096,2.175-1.486
			c0.315-0.196,0.605-0.365,0.873-0.511c0.13-0.067,0.253-0.132,0.37-0.192c0.033,0.008,0.096-0.026,0.152-0.056
			c0.116-0.07,0.223-0.163,0.299-0.222c0.073-0.038,0.143-0.095,0.172-0.183c0.054-0.152,0.025-0.183,0.144-0.243
			c0.152-0.056,0.454-0.183,0.719,0.075c0.124,0.116,0.213,0.363,0.2,0.662c-0.011,0.279-0.08,0.565-0.245,0.877
			c-0.09,0.156-0.191,0.318-0.375,0.487c-0.101,0.1-0.208,0.206-0.318,0.317c-0.219,0.212-0.469,0.439-0.749,0.681
			c-0.561,0.483-1.247,1.027-2.069,1.63C1112.961,605.957,1111.247,606.583,1110.875,606.076z"/>
	</g>
	<g>
		<path fill="#EE7471" d="M1112.803,613.345c-0.183-0.243-0.004-0.763,0.739-1.488c0.741-0.713,2.062-1.646,4.153-2.396
			c2.099-0.73,3.712-0.834,4.737-0.745c1.033,0.097,1.5,0.39,1.509,0.694c0.021,0.704-1.745,0.963-5.487,2.198
			C1114.766,612.998,1113.23,613.906,1112.803,613.345z"/>
	</g>
	<g>
		<path fill="#EE7471" d="M1098.496,624.276c0.029-0.155,0.269-0.279,0.71-0.367c0.221-0.051,0.491-0.065,0.814-0.117
			c0.325-0.068,0.7-0.133,1.127-0.191c1.722-0.312,4.226-1.206,7.752-3.035c3.52-1.836,6.347-2.98,8.302-3.227
			c0.977-0.132,1.696-0.136,2.176-0.033c0.475,0.08,0.698,0.205,0.708,0.361c0.01,0.157-0.194,0.332-0.608,0.519
			c-0.206,0.097-0.467,0.181-0.779,0.295c-0.31,0.132-0.672,0.271-1.09,0.416c-1.683,0.61-4.105,1.84-7.685,3.702
			c-3.578,1.87-6.641,2.706-8.652,2.607c-0.503-0.039-0.933-0.087-1.293-0.141c-0.36-0.072-0.649-0.189-0.873-0.276
			C1098.656,624.602,1098.468,624.43,1098.496,624.276z"/>
	</g>
	<g>
		<path fill="#EE7471" d="M1093.49,618.786c-0.499-0.411,1.098-3.06,5.418-8.716c4.29-5.68,6.413-7.928,6.942-7.558
			c0.502,0.35-0.8,3.205-5.128,8.936C1096.363,617.155,1093.962,619.175,1093.49,618.786z"/>
	</g>
	<g>
		<path fill="#EE7471" d="M348.137,454.553c-0.158,0.552-3.931,0.165-11.938-3.096c-7.959-3.377-10.895-5.78-10.614-6.281
			c0.324-0.601,3.688,0.869,11.489,4.177C344.921,452.55,348.335,453.9,348.137,454.553z"/>
	</g>
	<g>
		<path fill="#EE7471" d="M341.074,440.448c-0.102,0.582-1.71,0.933-4.964-0.304c-3.221-1.323-4.154-2.678-3.831-3.172
			c0.353-0.563,1.73-0.149,4.668,1.054C339.913,439.157,341.202,439.797,341.074,440.448z"/>
	</g>
	<g>
		<path fill="#EE7471" d="M347.507,435.143c-0.28,0.563-1.148,0.701-2.642-0.041c-1.493-0.742-1.908-1.517-1.629-2.08
			c0.28-0.563,1.149-0.701,2.642,0.041C347.373,433.804,347.787,434.58,347.507,435.143z"/>
	</g>
	<g>
		<path fill="#EE7471" d="M352.844,451.529c-0.291-0.131-0.214-0.934,0.228-2.477c0.371-1.537,1.36-3.846,1.182-6.955
			c-0.138-1.574-0.499-3.137-0.413-4.566c0.062-1.477,0.602-2.638,1.219-3.378c0.625-0.755,1.34-1.075,1.802-1.134
			c0.471-0.066,0.701,0.073,0.731,0.213c0.081,0.347-0.636,0.62-1.194,1.816c-0.273,0.6-0.516,1.442-0.46,2.5
			c0.024,1.108,0.404,2.475,0.586,4.372c0.144,1.939-0.23,3.564-0.645,4.825c-0.431,1.265-0.909,2.218-1.325,2.938
			C353.711,451.114,353.126,451.656,352.844,451.529z"/>
	</g>
	<g>
		<path fill="#EE7471" d="M384.627,447.063c-0.1,0.272-0.742,0.398-1.938-0.036c-1.167-0.438-2.937-1.491-4.516-3.745
			c-1.538-2.282-1.885-4.312-1.875-5.558c0.024-1.271,0.372-1.826,0.662-1.822c0.337,0.001,0.569,0.537,0.93,1.576
			c0.375,1.03,0.884,2.613,2.161,4.514c1.316,1.875,2.611,2.918,3.438,3.637C384.331,446.34,384.748,446.748,384.627,447.063z"/>
	</g>
</g>
</svg>
