<svg width="938" height="419" viewBox="0 0 938 419" fill="none" xmlns="http://www.w3.org/2000/svg">
<g id="plane1">
<path id="Vector" d="M859.64 210.66C849.87 214.26 832.71 217.22 812.85 219.6C758.85 226.08 684.85 228.38 684.85 228.38C684.85 228.38 304.44 259.93 19.33 142.59C19.33 142.59 -22.14 120.85 16.33 91.59C22.2539 87.2178 28.5516 83.3763 35.15 80.11L35.62 79.64C39.9958 75.5959 44.7247 71.9514 49.75 68.75C64.52 59.2 89.46 47.8801 119.82 53.0101L868.64 174.12C868.64 174.12 895.99 197.23 859.64 210.66Z" fill="#3F3D56"/>
<path id="Vector_2" d="M710.44 155.77L867.2 44.55L936.29 56.5L868.64 174.12C868.64 174.12 712.24 175.37 710.44 155.77Z" fill="#3F3D56"/>
<path id="Vector_3" d="M315.78 88.2L628.03 0.630005L678.36 11.15L537.31 74.6L493.23 123.92L315.78 88.2Z" fill="#3F3D56"/>
<path id="Vector_4" d="M812.85 219.6C758.85 226.08 684.85 228.38 684.85 228.38C684.85 228.38 304.44 259.93 19.33 142.59C19.33 142.59 -22.14 120.85 16.33 91.59L16.46 92.13C16.46 92.13 77.98 133.71 371.92 168.42L812.85 219.6Z" fill="#6C63FF"/>
<path id="Vector_5" d="M762.66 217.2L902.26 274.2L937.33 270.31L853.83 207.55C853.83 207.55 752.83 186 762.66 217.2Z" fill="#3F3D56"/>
<path id="Vector_6" d="M67.08 98.22C60.42 98.33 45.16 87.16 35.67 79.64C40.0458 75.5958 44.7746 71.9513 49.8 68.75C57.45 74.62 71.06 84.12 78.63 83.75C89.56 83.3 77.11 98.04 67.08 98.22Z" fill="#6C63FF"/>
<path id="Vector_7" d="M701.29 414.23L611.66 418.92L359.66 249L312.88 217.45L290.16 202.12C332.79 166.12 506.72 215.77 506.72 215.77C510.05 218.58 511.11 223.25 510.96 228.41C510.67 238.07 506.13 249.41 504.38 253.49C503.96 254.49 503.7 255.02 503.7 255.02L701.29 414.23Z" fill="#3F3D56"/>
</g>
</svg>
